<svg xmlns="http://www.w3.org/2000/svg"> 
<symbol width="21" height="16"   id="message"><path d="M18.5 0H2.5C1.4 0 0.51 0.9 0.51 2L0.5 14C0.5 15.1 1.4 16 2.5 16H18.5C19.6 16 20.5 15.1 20.5 14V2C20.5 0.9 19.6 0 18.5 0ZM18.5 4L10.5 9L2.5 4V2L10.5 7L18.5 2V4Z" fill="#E0E0E0"/>
</symbol>

<symbol width="17" height="21"   id="password"><path d="M14.5 7H13.5V5C13.5 2.24 11.26 0 8.5 0C5.74 0 3.5 2.24 3.5 5V7H2.5C1.4 7 0.5 7.9 0.5 9V19C0.5 20.1 1.4 21 2.5 21H14.5C15.6 21 16.5 20.1 16.5 19V9C16.5 7.9 15.6 7 14.5 7ZM8.5 16C7.4 16 6.5 15.1 6.5 14C6.5 12.9 7.4 12 8.5 12C9.6 12 10.5 12.9 10.5 14C10.5 15.1 9.6 16 8.5 16ZM11.6 7H5.4V5C5.4 3.29 6.79 1.9 8.5 1.9C10.21 1.9 11.6 3.29 11.6 5V7Z" fill="#E0E0E0"/>
</symbol>



<symbol viewBox="0 0 40 40" fill="none" id="wallet" >
<path d="M4.69412 9.52382L24.9583 3.85236L23.8851 1.62825C23.183 0.182586 21.4706 -0.41441 20.0606 0.305497L1.91992 9.52382H4.69412Z" fill="#24CCA7"/>
<path d="M31.0166 3.80957C30.7724 3.80957 30.5282 3.84601 30.284 3.91888L25.6552 5.30342L11.5192 9.52386H27.5644H34.5575L33.6917 6.05035C33.3587 4.69617 32.2376 3.80957 31.0166 3.80957Z" fill="#24CCA7"/>
<path d="M35.4497 10.7161H34.9377H34.2414H33.5452H28.2313H8.70522H6.14486H3.98877H3.58899H2.25042C1.54071 10.7161 0.907355 11.0414 0.494104 11.5539C0.305446 11.7901 0.161707 12.0619 0.0808534 12.3605C0.031443 12.5477 0 12.7438 0 12.9443V13.2117V15.7519V37.7716C0 39.0016 1.00618 39.9999 2.24593 39.9999H35.4452C36.685 39.9999 37.6912 39.0016 37.6912 37.7716V31.5548H24.3638C22.2572 31.5548 20.5458 29.8568 20.5458 27.7667V25.7256V25.0349V24.3441V22.8111C20.5458 21.7861 20.959 20.8547 21.6283 20.1728C22.2212 19.5667 23.0163 19.1567 23.9057 19.0542C24.0539 19.0364 24.2066 19.0275 24.3593 19.0275H35.8226H36.5188H37.215H37.6912V12.9443C37.6957 11.7143 36.6895 10.7161 35.4497 10.7161Z" fill="#4A56E2"/>
<path d="M39.2678 21.1578C39.0432 20.9528 38.7782 20.7968 38.4818 20.6943C38.2527 20.6185 38.0101 20.574 37.7541 20.574H37.6957H37.6508H36.9545H34.4436H24.3638C23.1241 20.574 22.1179 21.5722 22.1179 22.8022V23.9119V24.6027V25.2934V27.7624C22.1179 28.9924 23.1241 29.9906 24.3638 29.9906H37.6957H37.7541C38.0101 29.9906 38.2527 29.9461 38.4818 29.8703C38.7782 29.7723 39.0432 29.6118 39.2678 29.4068C39.717 29.0013 40 28.413 40 27.7624V22.8022C40 22.1516 39.717 21.5633 39.2678 21.1578ZM29.0533 25.7257C29.0533 26.3407 28.5503 26.8399 27.9304 26.8399H27.1847C26.5649 26.8399 26.0618 26.3407 26.0618 25.7257V24.9859C26.0618 24.6294 26.228 24.313 26.493 24.1125C26.6861 23.9654 26.9242 23.8718 27.1847 23.8718H27.3734H27.9304C28.5503 23.8718 29.0533 24.3709 29.0533 24.9859V25.7257Z" fill="#4A56E2"/>
</symbol>







</svg>